Coordinates
version=1
nRows=7
nColumns=40
inDegrees=yes

Units are S.I. units (second, meters, Newtons, ...)
If the header above contains a line with 'inDegrees', this indicates whether rotational values are in degrees (yes) or radians (no).

endheader
time	pelvis_tilt	pelvis_list	pelvis_rotation	pelvis_tx	pelvis_ty	pelvis_tz	hip_flexion_r	hip_adduction_r	hip_rotation_r	knee_angle_r	knee_angle_r_beta	ankle_angle_r	subtalar_angle_r	mtp_angle_r	hip_flexion_l	hip_adduction_l	hip_rotation_l	knee_angle_l	knee_angle_l_beta	ankle_angle_l	subtalar_angle_l	mtp_angle_l	lumbar_extension	lumbar_bending	lumbar_rotation	arm_flex_r	arm_add_r	arm_rot_r	elbow_flex_r	pro_sup_r	wrist_flex_r	wrist_dev_r	arm_flex_l	arm_add_l	arm_rot_l	elbow_flex_l	pro_sup_l	wrist_flex_l	wrist_dev_l
      8.65000000	     87.83017295	     89.84959539	     87.83597845	      0.26689256	      0.60877477	      0.88665688	     12.49944309	     -9.53319718	     -8.28045619	     13.08017544	      0.22829213	      4.28555525	      0.00000000	      0.00000000	      7.71761878	    -12.18224201	    -16.31703411	      8.99782180	      0.15704162	      2.97974769	      0.00000000	      0.00000000	     -5.18000733	     -4.04922446	      6.08191354	     15.47888291	      0.25030221	     -1.19883112	      8.69327319	     29.50909026	      0.00000000	      0.00000000	     18.03503040	      2.34783788	    -50.93627756	     16.67177170	     28.89731356	      0.00000000	      0.00000000
      8.65500000	     87.83733666	     89.85007619	     87.84321183	      0.26678103	      0.60866871	      0.88665202	     12.49773568	     -9.53912318	     -8.27752449	     13.09503437	      0.22855147	      4.30532525	      0.00000000	      0.00000000	      7.70737726	    -12.16341143	    -16.29476904	      8.99533793	      0.15699826	      2.99790010	      0.00000000	      0.00000000	     -5.14318800	     -4.03270654	      6.06590590	     15.46943651	      0.24322510	     -1.20641378	      8.68151839	     29.49997082	      0.00000000	      0.00000000	     18.00689665	      2.36089190	    -50.93590248	     16.66565747	     28.89207875	      0.00000000	      0.00000000
      8.66000000	     87.83578158	     89.85032472	     87.84178361	      0.26672951	      0.60862932	      0.88664394	     12.50562991	     -9.55574572	     -8.29473077	     13.11568604	      0.22891191	      4.31898375	      0.00000000	      0.00000000	      7.69783600	    -12.16454253	    -16.27772164	      8.99075956	      0.15691836	      3.01646343	      0.00000000	      0.00000000	     -5.11016683	     -4.01852264	      6.06183695	     15.46162024	      0.23885769	     -1.21405741	      8.67180486	     29.49097214	      0.00000000	      0.00000000	     17.97325471	      2.36838576	    -50.93807907	     16.66074285	     28.88684533	      0.00000000	      0.00000000
      8.66500000	     87.83834999	     89.85028092	     87.84439267	      0.26660731	      0.60858032	      0.88663578	     12.50761810	     -9.56654965	     -8.30561930	     13.13778358	      0.22929758	      4.33231501	      0.00000000	      0.00000000	      7.68790369	    -12.16546783	    -16.26004217	      8.98866014	      0.15688171	      3.03836861	      0.00000000	      0.00000000	     -5.06429671	     -4.00277093	      6.05961703	     15.44625702	      0.23289769	     -1.22220776	      8.65983603	     29.48258830	      0.00000000	      0.00000000	     17.93775508	      2.37785232	    -50.94252781	     16.65589183	     28.88207726	      0.00000000	      0.00000000
      8.67000000	     87.85271740	     89.85058526	     87.85914286	      0.26642432	      0.60841636	      0.88658167	     12.49441412	     -9.58030742	     -8.29903291	     13.15969883	      0.22968007	      4.35360941	      0.00000000	      0.00000000	      7.68991206	    -12.14918012	    -16.24699472	      8.99309988	      0.15695920	      3.05563787	      0.00000000	      0.00000000	     -5.01541599	     -3.98081069	      6.03877921	     15.41924562	      0.21627644	     -1.23274472	      8.64236139	     29.47355297	      0.00000000	      0.00000000	     17.90172906	      2.39817058	    -50.94704694	     16.64904153	     28.87711450	      0.00000000	      0.00000000
      8.67500000	     87.86098833	     89.85129157	     87.86774138	      0.26627321	      0.60836063	      0.88655395	     12.49202472	     -9.58901071	     -8.30187916	     13.17819901	      0.23000296	      4.37425649	      0.00000000	      0.00000000	      7.68485278	    -12.15188615	    -16.22330813	      9.00377079	      0.15714545	      3.07279133	      0.00000000	      0.00000000	     -4.95968117	     -3.96368350	      6.03088327	     15.39918896	      0.20809010	     -1.24210479	      8.63049594	     29.46538736	      0.00000000	      0.00000000	     17.86150370	      2.41034580	    -50.95359888	     16.64305888	     28.87238948	      0.00000000	      0.00000000
      8.68000000	     87.87844814	     89.85156996	     87.88543061	      0.26619226	      0.60816838	      0.88653768	     12.48942400	     -9.61238316	     -8.30944886	     13.19828396	      0.23035351	      4.39475512	      0.00000000	      0.00000000	      7.69803966	    -12.14033674	    -16.22581098	      9.01904325	      0.15741200	      3.09126023	      0.00000000	      0.00000000	     -4.92215409	     -3.94086245	      6.00310047	     15.38033820	      0.19091612	     -1.25302821	      8.61956398	     29.45683084	      0.00000000	      0.00000000	     17.82957007	      2.43305595	    -50.95794274	     16.63837818	     28.86757868	      0.00000000	      0.00000000
